# AST/ASF file generated using VICON BodyLanguage
# -----------------------------------------------
:version 1.10
:name VICON
:units
  mass 1.0
  length 0.45
  angle deg
:documentation
   .ast/.asf automatically generated from VICON data using
   VICON BodyBuilder and BodyLanguage model FoxedUp or BRILLIANT.MOD
:root
   order TX TY TZ RX RY RZ
   axis XYZ
   position 0 0 0  
   orientation 0 0 0 
:bonedata
  begin
     id 1 
     name lhipjoint
     direction 0.603808 -0.713975 0.35448 
     length 2.2025 
     axis 0 0 0  XYZ
  end
  begin
     id 2 
     name lfemur
     direction 0.34202 -0.939693 0  
     length 6.55877  
     axis 0 0 20  XYZ
    dof rx ry rz
    limits (-160.0 20.0)
           (-70.0 70.0)
           (-60.0 70.0)
  end
  begin
     id 3 
     name ltibia
     direction 0.34202 -0.939693 0   
     length 6.80302   
     axis 0 0 20   XYZ
    dof rx
    limits (-10.0 170.0)
  end
  begin
     id 4 
     name lfoot
     direction 0.091848 -0.25235 0.963267   
     length 2.03446   
     axis -90 7.62852e-016 20   XYZ
    dof rx rz
    limits (-45.0 90.0)
           (-70.0 20.0)
  end
  begin
     id 5 
     name ltoes
     direction 1.53608e-011 -4.21925e-011 1   
     length 1.02033   
     axis -90 7.62852e-016 20   XYZ
    dof rx
    limits (-90.0 20.0)
  end
  begin
     id 6 
     name rhipjoint
     direction -0.587285 -0.724947 0.359928   
     length 2.16916  
     axis 0 0 0  XYZ 
  end
  begin
     id 7 
     name rfemur
     direction -0.34202 -0.939693 0   
     length 6.43173   
     axis 0 0 -20   XYZ
    dof rx ry rz
    limits (-160.0 20.0)
           (-70.0 70.0)
           (-70.0 60.0)
  end
  begin
     id 8 
     name rtibia
     direction -0.34202 -0.939693 0   
     length 6.70662   
     axis 0 0 -20   XYZ
    dof rx
    limits (-10.0 170.0)
 end
 begin
     id 9 
     name rfoot
     direction -0.11854 -0.325686 0.938018   
     length 2.0773  
     axis -90 -7.62852e-016 -20   XYZ
    dof rx rz
    limits (-45.0 90.0)
           (-20.0 70.0)
  end
  begin
     id 10 
     name rtoes
     direction -1.53547e-011 -4.21838e-011 1   
     length 1.03267   
     axis -90 -7.62852e-016 -20   XYZ
    dof rx
    limits (-90.0 20.0)
  end
  begin
     id 11 
     name lowerback
     direction -0.0286554 0.999539 0.0100613   
     length 2.08751   
     axis 0 0 0   XYZ
    dof rx ry rz
    limits (-20.0 45.0)
           (-30.0 30.0)
           (-30.0 30.0)
  end
  begin
     id 12 
     name upperback
     direction 0.0227093 0.999705 -0.00860929   
     length 2.08517   
     axis 0 0 0   XYZ
    dof rx ry rz
    limits (-20.0 45.0)
           (-30.0 30.0)
           (-30.0 30.0)
  end
  begin
     id 13 
     name thorax
     direction 0.0351627 0.999285 -0.013892   
     length 2.08412   
     axis 0 0 0   XYZ
    dof rx ry rz
    limits (-20.0 45.0)
           (-30.0 30.0)
           (-30.0 30.0)
  end
  begin
     id 14 
     name lowerneck
     direction -0.0696283 0.997344 0.0213922   
     length 1.44164   
     axis 0 0 0   XYZ
    dof rx ry rz
    limits (-20.0 45.0)
           (-30.0 30.0)
           (-30.0 30.0)
  end
  begin
     id 15 
     name upperneck
     direction 0.0531 0.990412 -0.127531   
     length 1.45022   
     axis 0 0 0   XYZ
    dof rx ry rz
    limits (-20.0 45.0)
           (-30.0 30.0)
           (-30.0 30.0)
  end
  begin
     id 16
     name head
     direction 0.0188154 0.998548 -0.0504727  
     length 1.45845  
     axis 0 0 0   XYZ
    dof rx ry rz
    limits (-20.0 45.0)
           (-30.0 30.0)
           (-30.0 30.0)
  end
  begin
     id 17 
     name lclavicle
     direction 0.961559 0.260051 0.088188  
     length 2.86057  
     axis 0 0 0   XYZ
    dof ry rz
    limits (-20.0 10.0)
           (0.0 20.0)
  end
  begin
     id 18 
     name lhumerus
     direction 1 -4.48959e-011 2.88185e-027   
     length 4.36901   
     axis 180 -30 -90   XYZ
    dof rx ry rz
    limits (-60.0 90.0)
           (-90.0 90.0)
           (-90.0 90.0)
  end
  begin
     id 19
     name lradius
     direction 1 -4.48965e-011 -3.92618e-028   
     length 3.21737   
     axis 180 -30 -90   XYZ
    dof rx
    limits (-10.0 170.0)
  end
  begin
     id 20
     name lwrist
     direction 1 -4.49037e-011 2.57246e-027   
     length 1.60869   
     axis -1.61769e-015 90 90   XYZ
    dof ry
    limits (-180.0 0.0)
 end
  begin
     id 21 
     name lhand
     direction 1 -4.48807e-011 5.12958e-027   
     length 0.564313   
     axis -3.27988e-015 90 90   XYZ
    dof rx rz
    limits (-90.0 90.0)
           (-45.0 45.0)
  end
  begin
     id 22 
     name lfingers
     direction 1 -4.48879e-011 1.02687e-026   
     length 0.454963   
     axis -6.5598e-015 90 90   XYZ
    dof rx
    limits (0.0 90.0)
  end
  begin
     id 23
     name lthumb
     direction 0.707107 -6.3475e-011 0.707107   
     length 0.653239   
     axis -90 45 2.19363e-014   XYZ
    dof rx rz
    limits (-45.0 45.0)
           (-45.0 45.0)
  end
  begin
     id 24 
     name rclavicle
     direction -0.954677 0.253915 0.155304   
     length 3.11497  
     axis 0 0 0   XYZ 
    dof ry rz
    limits (-10.0 20.0)
           (-20.0 0.0)
  end
  begin
     id 25 
     name rhumerus
     direction -1 -4.48958e-011 -8.20169e-028  
     length 4.34118   
     axis 180 30 90   XYZ
    dof rx ry rz
    limits (-90.0 60.0)
           (-90.0 90.0)
           (-90.0 90.0)
  end
  begin
     id 26 
     name rradius
     direction -1 -4.48978e-011 1.5676e-027   
     length 3.09531   
     axis 180 30 90   XYZ
    dof rx
    limits (-10.0 170.0)
  end
  begin
     id 27 
     name rwrist
     direction -1 -4.49001e-011 2.57123e-027   
     length 1.54765   
     axis -1.61769e-015 -90 -90   XYZ
    dof ry
    limits (-180.0 0.0)
  end
  begin
     id 28
     name rhand
     direction -1 -4.48847e-011 5.13225e-027   
     length 0.597446   
     axis -3.27988e-015 -90 -90   XYZ
    dof rx rz
    limits (-90.0 90.0)
           (-45.0 45.0)
  end
  begin
     id 29
     name rfingers
     direction -1 -4.49094e-011 1.02974e-026   
     length 0.481677   
     axis -6.5598e-015 -90 -90   XYZ
    dof rx
    limits (0.0 90.0)
  end
  begin
     id 30
     name rthumb
     direction -0.707107 -6.34859e-011 0.707107   
     length 0.691594   
     axis -90 -45 -2.19363e-014   XYZ
    dof rx rz
    limits (-45.0 45.0)
           (-45.0 45.0)
  end
:hierarchy
  begin
    root lhipjoint rhipjoint lowerback
    lhipjoint lfemur
    lfemur ltibia
    ltibia lfoot
    lfoot ltoes
    rhipjoint rfemur
    rfemur rtibia
    rtibia rfoot
    rfoot rtoes
    lowerback upperback
    upperback thorax
    thorax lowerneck lclavicle rclavicle
    lowerneck upperneck
    upperneck head
    lclavicle lhumerus
    lhumerus lradius
    lradius lwrist
    lwrist lhand lthumb
    lhand lfingers
    rclavicle rhumerus
    rhumerus rradius
    rradius rwrist
    rwrist rhand rthumb
    rhand rfingers
  end

#!OML:ASF I:\Acrobat_Osman\acrobat\cartwheel_test 2\Patient 1\Session 1\acrobat.ASF
:FULLY-SPECIFIED
:DEGREES
1521
root 5.46378 14.422 -10.0397 -1.80368 -22.0687 1.8704
lowerback 2.85739 0.65241 -0.789505
upperback 3.61953 0.819761 1.64655
thorax 2.07845 0.36236 2.12489
lowerneck -7.41657 -3.31242 -2.18714
upperneck 1.72811 -4.34215 3.1794
head 1.94555 -2.10176 1.21047
rclavicle 6.50026e-014 7.95139e-015
rhumerus 45.2045 31.9637 -58.6927
rradius 38.5491
rwrist 6.34585
rhand -2.38239 18.4785
rfingers 7.12502
rthumb 23.3066 -10.1308
lclavicle 6.50026e-014 7.95139e-015
lhumerus -37.2008 -34.8068 99.0435
lradius 29.7599
lwrist 6.54326
lhand -12.1989 49.573
lfingers 7.12502
lthumb 13.8654 799.091
rfemur -25.0886 4.73485 20.846
rtibia 59.2987
rfoot -26.6101 7.80418
rtoes 4.06795
lfemur -200.596 167.098 -206.873
ltibia 57.324
lfoot -24.0063 14.6539
ltoes -48.8262
1522
root 5.48152 14.6144 -9.99544 -1.47788 -22.1069 1.63567
lowerback 2.44896 0.751106 -0.449339
upperback 3.45757 0.956749 1.68388
thorax 2.13895 0.439509 1.97494
lowerneck -7.51732 -3.55481 -2.18807
upperneck 2.28173 -4.68872 3.44948
head 2.16564 -2.26266 1.2789
rclavicle 2.23633e-014 1.59028e-015
rhumerus 50.7294 28.2605 -52.7046
rradius 40.5322
rwrist 4.93726
rhand -0.0377507 18.3211
rfingers 7.12502
rthumb 25.5542 -9.98489
lclavicle 2.23633e-014 1.59028e-015
lhumerus -44.0965 -33.112 104.308
lradius 31.1596
lwrist 6.55157
lhand -7.78313 49.5875
lfingers 7.12502
lthumb 18.1175 798.764
rfemur -24.0956 5.04918 20.9311
rtibia 57.085
rfoot -24.761 6.8808
rtoes 0.11493
lfemur -199.842 167.194 -206.851
ltibia 55.1105
lfoot -22.4541 13.0294
ltoes -47.963
1523
root 5.496 14.8538 -9.95706 -1.10061 -21.9517 1.56427
lowerback 2.1394 0.867076 -0.35542
upperback 3.19145 1.11535 1.72212
thorax 2.03329 0.523434 1.96243
lowerneck -7.71753 -3.82245 -2.20482
upperneck 3.01809 -5.06124 3.46814
head 2.46038 -2.44052 1.26432
rclavicle 1.98785e-014 7.95139e-015
rhumerus 54.8677 23.7213 -47.6425
rradius 42.4707
rwrist 3.25377
rhand 2.64785 16.8797
rfingers 7.12502
rthumb 28.124 -11.0314
lclavicle 1.98785e-014 7.95139e-015
lhumerus -50.7976 -32.0284 109.641
lradius 32.1808
lwrist 8.60707
lhand -4.00907 49.3789
lfingers 7.12502
lthumb 21.7452 798.177
rfemur -23.0746 5.11143 20.8969
rtibia 54.5628
rfoot -22.3121 5.59223
rtoes -5.10138
lfemur -199.127 167.019 -206.876
ltibia 52.6561
lfoot -20.7366 10.0051
ltoes -45.9474
1524
root 5.50034 15.1249 -9.9259 -0.69342 -21.5793 1.59264
lowerback 1.83991 1.01054 -0.426571
upperback 2.89618 1.31147 1.67636
thorax 1.88952 0.624065 1.95614
lowerneck -7.90804 -4.09758 -1.94586
upperneck 3.79958 -5.45933 3.22857
head 2.75289 -2.63478 1.11396
rclavicle -2.10712e-014 -1.11319e-014
rhumerus 57.7687 18.4527 -43.7289
rradius 44.2857
rwrist 1.83167
rhand 3.67876 17.0301
rfingers 7.12502
rthumb 29.109 -10.7149
lclavicle -2.10712e-014 -1.11319e-014
lhumerus -56.7396 -30.7381 114.099
lradius 32.9937
lwrist 11.1581
lhand 0.0377038 49.6458
lfingers 7.12502
lthumb 25.6265 797.941
rfemur -22.1313 5.28053 20.7471
rtibia 51.8912
rfoot -19.2849 4.48766
rtoes -7.64658
lfemur -198.497 166.521 -206.827
ltibia 50.2031
lfoot -18.7216 6.21481
ltoes -42.7993
1525
root 5.49754 15.4014 -9.90206 -0.213911 -20.8938 1.56324
lowerback 1.56838 1.13643 -0.6177
upperback 2.64339 1.48237 1.68915
thorax 1.77047 0.708839 2.0781
lowerneck -8.43262 -4.3798 -1.5726
upperneck 4.74101 -5.86474 2.76413
head 3.15236 -2.83407 0.858625
rclavicle -1.75924e-014 -8.74653e-015
rhumerus 59.974 12.5243 -40.774
rradius 46.0065
rwrist 0.759754
rhand 4.04535 16.8008
rfingers 7.12502
rthumb 29.459 -10.883
lclavicle -1.75924e-014 -8.74653e-015
lhumerus -62.2248 -29.5064 117.844
lradius 33.7478
lwrist 11.7121
lhand 2.69843 50.1658
lfingers 7.12502
lthumb 28.1723 798.069
rfemur -21.2909 5.66069 20.6762
rtibia 49.2676
rfoot -16.5573 2.67382
rtoes -9.74135
lfemur -198.07 165.994 -206.598
ltibia 48.0114
lfoot -16.4358 2.71779
ltoes -38.8899
1526
root 5.49556 15.6453 -9.88648 0.387319 -19.9267 1.47817
lowerback 1.36781 1.19131 -0.798634
upperback 2.41054 1.55816 1.73807
thorax 1.63463 0.746314 2.23072
lowerneck -9.70558 -4.62397 -1.42376
upperneck 6.06806 -6.19596 2.33182
head 3.84797 -2.99122 0.628477
rclavicle -9.34288e-015 1.98785e-014
rhumerus 61.7758 6.1621 -38.035
rradius 48.0483
rwrist -1.08823
rhand 4.12145 16.0937
rfingers 7.12502
rthumb 29.5316 -11.5774
lclavicle -9.34288e-015 1.98785e-014
lhumerus -67.3215 -28.2266 120.705
lradius 34.8388
lwrist 10.3855
lhand 5.49343 49.235
lfingers 7.12502
lthumb 30.8405 796.667
rfemur -20.6004 6.1178 20.7326
rtibia 46.9425
rfoot -15.0981 -0.116492
rtoes -13.8833
lfemur -198.034 165.713 -206.321
ltibia 46.2699
lfoot -14.3752 0.837111
ltoes -36.2234
1527
root 5.4936 15.8373 -9.88106 0.963536 -18.6775 1.26748
lowerback 1.34236 1.17441 -0.734469
upperback 2.30912 1.53757 1.72903
thorax 1.54744 0.738872 2.18442
lowerneck -11.5936 -4.85499 -1.37001
upperneck 7.80721 -6.50827 2.08846
head 4.33527 -3.12172 0.399957
rclavicle -8.62725e-014 1.27222e-014
rhumerus 63.3229 -0.630995 -35.3256
rradius 49.9899
rwrist -3.71493
rhand 3.58223 15.2914
rfingers 7.12502
rthumb 29.0168 -12.4695
lclavicle -8.62725e-014 1.27222e-014
lhumerus -71.2534 -26.7169 121.288
lradius 36.5649
lwrist 10.0611
lhand 8.41025 49.1874
lfingers 7.12502
lthumb 33.617 796.055
rfemur -20.0187 6.49576 21.0216
rtibia 45.1082
rfoot -14.7451 -2.55135
rtoes -17.3444
lfemur -198.17 165.785 -205.957
ltibia 45.0611
lfoot -13.1193 0.851456
ltoes -36.2457
1528
root 5.48746 15.9744 -9.88894 1.53424 -16.8396 0.941527
lowerback 1.52907 0.946836 -0.563338
upperback 2.26528 1.23551 1.75286
thorax 1.41369 0.591695 2.10917
lowerneck -13.4925 -5.0267 -1.23777
upperneck 8.74355 -6.72036 1.71254
head 4.92006 -3.21973 0.18525
rclavicle 4.94974e-014 -2.22639e-014
rhumerus 64.8908 -7.64966 -33.1832
rradius 51.5676
rwrist -5.89066
rhand 1.71608 14.8621
rfingers 7.12502
rthumb 27.233 -13.192
lclavicle 4.94974e-014 -2.22639e-014
lhumerus -74.6901 -25.2622 120.466
lradius 38.5454
lwrist 9.78399
lhand 9.73817 48.5518
lfingers 7.12502
lthumb 34.878 795.136
rfemur -19.7389 6.39165 21.5598
rtibia 43.8586
rfoot -14.7268 -3.69008
rtoes -20.6716
lfemur -198.36 166.463 -205.523
ltibia 44.3494
lfoot -12.0724 1.98579
ltoes -37.368
1529
root 5.47848 16.0523 -9.90565 2.08306 -14.5225 0.762193
lowerback 1.55075 0.541351 -0.543365
upperback 2.32464 0.694264 1.77881
thorax 1.48451 0.320307 2.12696
lowerneck -14.6222 -5.12263 -1.06281
upperneck 8.59758 -6.81758 1.3084
head 5.03807 -3.28133 -0.00184404
rclavicle -6.16232e-015 -7.15625e-015
rhumerus 66.9462 -14.9857 -32.5619
rradius 52.907
rwrist -7.16996
rhand 1.01915 14.3242
rfingers 7.12502
rthumb 26.5662 -13.8326
lclavicle -6.16232e-015 -7.15625e-015
lhumerus -77.1328 -23.7917 117.864
lradius 40.5033
lwrist 10.4725
lhand 10.6577 47.7318
lfingers 7.12502
lthumb 35.7499 794.109
rfemur -19.7038 6.02386 22.0161
rtibia 43.0958
rfoot -14.71 -3.95131
rtoes -23.3434
lfemur -198.547 167.667 -205.24
ltibia 43.9773
lfoot -10.5682 3.91991
ltoes -38.673
1530
root 5.46895 16.0779 -9.92354 2.47179 -12.1889 0.743376
lowerback 1.69909 0.174318 -0.672989
upperback 2.31382 0.205052 1.80019
thorax 1.40996 0.0742439 2.22263
lowerneck -14.9512 -5.21537 -1.15594
upperneck 7.96643 -6.87895 1.07382
head 4.88842 -3.3339 -0.062891
rclavicle -1.40143e-014 -6.36111e-015
rhumerus 69.5032 -22.2786 -33.2346
rradius 53.9248
rwrist -8.06019
rhand 2.29584 13.1959
rfingers 7.12502
rthumb 27.7875 -14.77
lclavicle -1.40143e-014 -6.36111e-015
lhumerus -79.1496 -22.4614 114.31
lradius 42.2234
lwrist 12.0852
lhand 11.0196 47.1519
lfingers 7.12502
lthumb 36.0928 793.446
rfemur -19.6113 5.79545 22.3495
rtibia 42.6224
rfoot -14.3373 -4.17671
rtoes -24.9752
lfemur -198.521 169.013 -205.004
ltibia 43.7327
lfoot -9.2843 5.79693
ltoes -39.635
